#!OML:ASF H:\Punching\Project 1\Capture day 1\Session 1\female.ASF
:FULLY-SPECIFIED
:DEGREES
1992
root 2.19018 15.5685 8.25312 12.9018 6.98666 -3.3105
lowerback -0.921909 0.971082 1.09092
upperback -5.78601 1.40658 1.50054
thorax -5.47852 0.694819 0.889382
lowerneck -10.8831 3.97179 12.471
upperneck 25.334 4.15498 -4.56239
head 10.2637 2.61905 -3.21934
rclavicle 3.16844e-014 2.55438e-014
rhumerus -36.2518 4.25711 -69.7156
rradius 56.3064
rwrist -1.96967
rhand -6.73852 -7.43278
rfingers 7.12502
rthumb 19.1223 -36.5127
lclavicle 3.16844e-014 2.55438e-014
lhumerus -26.5824 -25.8749 77.5462
lradius 67.7267
lwrist -0.566101
lhand -10.1816 15.081
lfingers 7.12502
lthumb 15.8088 44.4555
rfemur -28.7165 8.34789 2.63569
rtibia 22.9387
rfoot 1.37614 -18.3152
rtoes -10.306
lfemur -8.30035 -10.4138 -13.7732
ltibia 21.2549
lfoot -21.332 17.3126
ltoes -8.56432
1993
root 2.25131 15.5706 8.19853 12.8075 6.3159 -3.38959
lowerback -0.775978 1.01556 1.05813
upperback -5.75518 1.46762 1.51283
thorax -5.53108 0.726488 0.915673
lowerneck -10.8484 4.09781 12.663
upperneck 25.2818 4.32495 -4.68288
head 10.2634 2.70027 -3.27286
rclavicle -2.04795e-014 -4.04527e-014
rhumerus -37.0207 3.39422 -69.7629
rradius 55.2598
rwrist -2.07982
rhand -6.54188 -7.86431
rfingers 7.12502
rthumb 19.3114 -36.9255
lclavicle -2.04795e-014 -4.04527e-014
lhumerus -27.5417 -25.3337 77.9446
lradius 66.4105
lwrist -1.25187
lhand -9.78559 15.351
lfingers 7.12502
lthumb 16.1901 44.6949
rfemur -28.3908 7.01446 3.77413
rtibia 23.965
rfoot 0.43364 -16.748
rtoes -10.363
lfemur -8.45516 -10.1968 -14.0838
ltibia 21.7224
lfoot -21.5228 17.5333
ltoes -8.04619
1994
root 2.30989 15.5716 8.14442 12.7487 5.62993 -3.47406
lowerback -0.656844 1.05973 1.04267
upperback -5.73445 1.52754 1.50982
thorax -5.5782 0.756378 0.916686
lowerneck -10.8036 4.22752 12.8689
upperneck 25.2084 4.49465 -4.79013
head 10.2544 2.78362 -3.32363
rclavicle 1.14565e-014 1.22253e-014
rhumerus -37.7158 2.50423 -69.8311
rradius 54.1325
rwrist -2.20189
rhand -6.40282 -8.22118
rfingers 7.12502
rthumb 19.4451 -37.2689
lclavicle 1.14565e-014 1.22253e-014
lhumerus -28.5516 -24.6677 78.3043
lradius 65.2241
lwrist -2.19208
lhand -9.2448 15.5034
lfingers 7.12502
lthumb 16.7108 44.8042
rfemur -28.1378 5.73471 4.88344
rtibia 25.0941
rfoot -0.798314 -15.4713
rtoes -10.1571
lfemur -8.65481 -9.95863 -14.3741
ltibia 22.2049
lfoot -21.7282 17.7684
ltoes -7.54188
1995
root 2.36642 15.5721 8.09245 12.7183 4.95497 -3.55799
lowerback -0.577886 1.09622 1.04514
upperback -5.71121 1.57595 1.49125
thorax -5.59863 0.779316 0.892656
lowerneck -10.7712 4.36224 13.0863
upperneck 25.113 4.66362 -4.88597
head 10.2406 2.86811 -3.37172
rclavicle -1.36199e-014 -2.08724e-014
rhumerus -38.3262 1.58418 -69.9106
rradius 52.9114
rwrist -2.30355
rhand -6.32863 -8.42764
rfingers 7.12502
rthumb 19.5164 -37.4681
lclavicle -1.36199e-014 -2.08724e-014
lhumerus -29.572 -23.9084 78.6109
lradius 64.1303
lwrist -3.25717
lhand -8.60167 15.5002
lfingers 7.12502
lthumb 17.3298 44.7476
rfemur -27.9291 4.53091 5.94399
rtibia 26.3067
rfoot -2.19095 -14.4658
rtoes -9.81883
lfemur -8.87545 -9.7292 -14.6511
ltibia 22.6752
lfoot -21.9389 18.0245
ltoes -7.04462
1996
root 2.42119 15.5726 8.04355 12.7172 4.29926 -3.64297
lowerback -0.551252 1.12368 1.07323
upperback -5.68847 1.61108 1.45734
thorax -5.58831 0.794107 0.839946
lowerneck -10.7335 4.49795 13.311
upperneck 24.9926 4.8304 -4.97327
head 10.2173 2.95252 -3.41779
rclavicle 1.87976e-014 2.43511e-014
rhumerus -38.8662 0.64144 -70.0026
rradius 51.6178
rwrist -2.36876
rhand -6.33126 -8.54911
rfingers 7.12502
rthumb 19.5139 -37.5899
lclavicle 1.87976e-014 2.43511e-014
lhumerus -30.5972 -23.0815 78.868
lradius 63.1083
lwrist -4.31457
lhand -7.90484 15.363
lfingers 7.12502
lthumb 18.0004 44.55
rfemur -27.7476 3.42373 6.94563
rtibia 27.5655
rfoot -3.61046 -13.683
rtoes -9.45309
lfemur -9.1114 -9.52324 -14.9147
ltibia 23.1248
lfoot -22.153 18.3085
ltoes -6.55029
1997
root 2.47413 15.5735 7.99783 12.744 3.67021 -3.73282
lowerback -0.577526 1.14187 1.12791
upperback -5.6645 1.63282 1.41307
thorax -5.54519 0.800828 0.763326
lowerneck -10.6978 4.63198 13.531
upperneck 24.8509 4.99226 -5.04986
head 10.1864 3.03468 -3.4594
rclavicle -2.09485e-014 -1.18028e-014
rhumerus -39.3411 -0.331267 -70.0925
rradius 50.2674
rwrist -2.36505
rhand -6.37554 -8.63636
rfingers 7.12502
rthumb 19.4713 -37.6814
lclavicle -2.09485e-014 -1.18028e-014
lhumerus -31.6122 -22.203 79.0842
lradius 62.1452
lwrist -5.22819
lhand -7.20579 15.1455
lfingers 7.12502
lthumb 18.6729 44.2692
rfemur -27.5755 2.42327 7.89099
rtibia 28.8356
rfoot -4.94668 -13.0685
rtoes -9.14249
lfemur -9.35834 -9.34632 -15.1586
ltibia 23.5405
lfoot -22.3619 18.615
ltoes -6.05459
